# xmcd
#
# Track frame offsets: 
#        150
#        20398
#        40650
#        60902
#        81152
#        101404
#        121655
#        141906
#        162157
#        182408
#        202658
#        222911
#        243163
#        263413
#        283665
#        303916
#
# Disc length: 4322 seconds
#
# Revision: 6
# Processed by: cddbd v1.5.2PL0 Copyright (c) Steve Scherf et al.
# Submitted via: ExactAudioCopy v0.99pb4
#
DISCID=c110e010
DTITLE=Various Artist - Musique pour vivre
DYEAR=2003
DGENRE=New Age
TTITLE0=Philippe Bestion - morning light
TTITLE1=Nicolas Jeandot - rencontre d'un autre type
TTITLE2=Philippe Bestion - l'écrivain
TTITLE3=Madhura - Armstrong feelings
TTITLE4=Philippe Bestion - le souffle de la terre
TTITLE5=Philippe Bestion - Eire
TTITLE6=Philippe Bestion - fenêtre sur ailleurs
TTITLE7=X Giorgi - la danse du feu
TTITLE8=X Giorgi - vitalité
TTITLE9=Gilbert Dall'anese - la danse des dauphins
TTITLE10=Philippe Bestion - légende personnelle
TTITLE11=Nicolas Jeandot - terres atlantes
TTITLE12=Georges Bodossian - les heures pourpres
TTITLE13=Philippe Bestion - l'amour des sens
TTITLE14=Nicolas Jeandot - fileuse de lune
TTITLE15=Michel Goubin - le train du soleil
EXTD=
EXTT0=
EXTT1=
EXTT2=
EXTT3=
EXTT4=
EXTT5=
EXTT6=
EXTT7=
EXTT8=
EXTT9=
EXTT10=
EXTT11=
EXTT12=
EXTT13=
EXTT14=
EXTT15=
PLAYORDER=
